<svg width="772" height="250" viewBox="0 0 772 250" xmlns="http://www.w3.org/2000/svg"><title>banner</title><g stroke-width="1.51" fill="none" fill-rule="evenodd"><path stroke="#772C80" fill="#772C80" d="M747.286 212.209l32.72 49.99 16.36-68.168z"/><path stroke="#86649B" fill="#86649B" d="M750.013 42.245l-6.362 66.35 52.716 3.635z"/><path stroke="#794B8C" fill="#794B8C" d="M796.367 112.23l-49.99 58.17 59.079-7.271z"/><path stroke="#86699A" fill="#86699A" d="M750.013 42.245l46.354 69.985L810 29.52z"/><path stroke="#92709F" fill="#92709F" d="M784.55-2.29l-34.537 44.535L810 29.521z"/><path stroke="#7F5594" fill="#7F5594" d="M743.65 108.595l2.727 61.805 49.99-58.17z"/><path stroke="#784086" fill="#784086" d="M746.377 170.4l49.99 23.631 9.089-30.902z"/><path stroke="#7C3B88" fill="#7C3B88" d="M746.377 170.4l.91 41.809 49.08-18.178z"/><path stroke="#7B237F" fill="#7B237F" d="M747.286 212.209l-14.542 57.26 47.262-7.27z"/><path stroke="#9D76A7" fill="#9D76A7" d="M737.288-15.015l12.725 57.26L784.55-2.29z"/><path stroke="#88559B" fill="#88559B" d="M743.65 108.595l-58.169 34.538 60.896 27.267z"/><path stroke="#956FA7" fill="#956FA7" d="M689.117 42.245l54.534 66.35 6.362-66.35z"/><path stroke="#852889" fill="#852889" d="M689.117 211.3l5.453 53.625 38.174 4.544z"/><path stroke="#A87DB3" fill="#A87DB3" d="M690.935-7.744l-1.818 49.99 48.171-57.261z"/><path stroke="#946EAB" fill="#946EAB" d="M689.117 42.245L670.03 88.6l73.62 19.996z"/><path stroke="#843C90" fill="#843C90" d="M746.377 170.4l-57.26 40.9 58.17.909z"/><path stroke="#832E8B" fill="#832E8B" d="M689.117 211.3l43.627 58.17 14.542-57.261z"/><path stroke="#A177AC" fill="#A177AC" d="M737.288-15.015l-48.171 57.26h60.896z"/><path stroke="#894999" fill="#894999" d="M685.481 143.133l3.636 68.167 57.26-40.9z"/><path stroke="#8E63A5" fill="#8E63A5" d="M670.03 88.6l15.451 54.533 58.17-34.538z"/><path stroke="#873B97" fill="#873B97" d="M614.587 218.571l9.09 55.443 65.44-62.714z"/><path stroke="#8B53A0" fill="#8B53A0" d="M685.481 143.133H621.86l67.258 68.167z"/><path stroke="#8A4D9F" fill="#8A4D9F" d="M621.859 143.133l-7.272 75.438 74.53-7.27z"/><path stroke="#9A78B2" fill="#9A78B2" d="M644.58 48.608l25.45 39.991 19.087-46.354z"/><path stroke="#A380B7" fill="#A380B7" d="M648.217-7.744l-3.636 56.352 44.536-6.363z"/><path stroke="#A881B7" fill="#A881B7" d="M648.217-7.744l40.9 49.99 1.818-49.99z"/><path stroke="#852F8E" fill="#852F8E" d="M689.117 211.3l-65.44 62.714 70.893-9.089z"/><path stroke="#8C65A9" fill="#8C65A9" d="M670.03 88.6l-48.171 54.533h63.622z"/><path stroke="#906EAF" fill="#906EAF" d="M638.219 85.872l-16.36 57.26L670.03 88.6z"/><path stroke="#9678B4" fill="#9678B4" d="M644.58 48.608l-6.361 37.264L670.03 88.6z"/><path stroke="#8A56A6" fill="#8A56A6" d="M575.505 187.669l39.082 30.902 7.272-75.438z"/><path stroke="#A788BE" fill="#A788BE" d="M595.5-3.2l49.08 51.808 3.637-56.352z"/><path stroke="#8F71B3" fill="#8F71B3" d="M580.05 102.233l41.809 40.9 16.36-57.26z"/><path stroke="#9681BB" fill="#9681BB" d="M560.962 40.428l19.087 61.805 58.17-16.36z"/><path stroke="#9A81BB" fill="#9A81BB" d="M560.962 40.428l77.257 45.444 6.362-37.264z"/><path stroke="#A38AC0" fill="#A38AC0" d="M595.5-3.2l-34.538 43.628 83.619 8.18z"/><path stroke="#8C6CB1" fill="#8C6CB1" d="M580.05 102.233l-8.18 53.624 49.989-12.724z"/><path stroke="#8C61AC" fill="#8C61AC" d="M571.87 155.857l3.635 31.812 46.354-44.536z"/><path stroke="#873996" fill="#873996" d="M614.587 218.571l-32.72 58.17 41.81-2.727z"/><path stroke="#89479F" fill="#89479F" d="M575.505 187.669l6.362 89.072 32.72-58.17z"/><path stroke="#89489F" fill="#89489F" d="M575.505 187.669l-46.354 69.076 52.716 19.996z"/><path stroke="#A490C4" fill="#A490C4" d="M540.058 40.428h20.904L595.501-3.2z"/><path stroke="#AA98C8" fill="#AA98C8" d="M509.155-25.922l30.903 66.35L595.5-3.2z"/><path stroke="#9B8EC3" fill="#9B8EC3" d="M540.058 40.428l-13.634 51.807 34.538-51.807z"/><path stroke="#8B56A6" fill="#8B56A6" d="M516.427 200.393l12.724 56.352 46.354-69.076z"/><path stroke="#8C74B4" fill="#8C74B4" d="M511.882 139.497l59.987 16.36 8.18-53.624z"/><path stroke="#907DBA" fill="#907DBA" d="M526.424 92.235l-14.542 47.262 68.167-37.264z"/><path stroke="#9586BE" fill="#9586BE" d="M560.962 40.428l-34.538 51.807 53.625 9.998z"/><path stroke="#8B60AB" fill="#8B60AB" d="M571.87 155.857l-55.443 44.536 59.078-12.724z"/><path stroke="#8C6AB0" fill="#8C6AB0" d="M511.882 139.497l4.545 60.896 55.442-44.536z"/><path stroke="#ACA5CF" fill="#ACA5CF" d="M478.253-23.195l-21.814 65.44 52.716-68.167z"/><path stroke="#9A94C6" fill="#9A94C6" d="M456.44 42.245l69.984 49.99 13.634-51.807z"/><path stroke="#A69DCA" fill="#A69DCA" d="M509.155-25.922L456.44 42.245l83.619-1.817z"/><path stroke="#8D72B4" fill="#8D72B4" d="M511.882 139.497l-26.358-.909 30.903 61.805z"/><path stroke="#8D7FBB" fill="#8D7FBB" d="M485.524 138.588l26.358.91 14.542-47.263z"/><path stroke="#9593C5" fill="#9593C5" d="M456.44 42.245l-1.818 63.623 71.802-13.633z"/><path stroke="#8B5AA9" fill="#8B5AA9" d="M516.427 200.393l-63.623 15.452 76.347 40.9z"/><path stroke="#8A54A3" fill="#8A54A3" d="M452.804 215.845l25.449 61.805 50.898-20.905z"/><path stroke="#8F87BF" fill="#8F87BF" d="M454.622 105.868l30.902 32.72 40.9-46.353z"/><path stroke="#8C6CB1" fill="#8C6CB1" d="M485.524 138.588l-32.72 77.257 63.623-15.452z"/><path stroke="#A6A6CF" fill="#A6A6CF" d="M431.9 34.974l24.54 7.271 21.813-65.44z"/><path stroke="#8D74B5" fill="#8D74B5" d="M413.721 187.669l39.083 28.176 32.72-77.257z"/><path stroke="#8D8AC0" fill="#8D8AC0" d="M454.622 105.868l-44.536 27.267 75.438 5.453z"/><path stroke="#8D82BC" fill="#8D82BC" d="M410.086 133.135l3.635 54.534 71.803-49.08z"/><path stroke="#8B5DA6" fill="#8B5DA6" d="M452.804 215.845l-53.625 43.627 55.443 37.264z"/><path stroke="#8B55A1" fill="#8B55A1" d="M452.804 215.845l1.818 80.891 23.63-19.086z"/><path stroke="#ADAED4" fill="#ADAED4" d="M416.448-28.648l15.451 63.622 46.354-58.17z"/><path stroke="#949CCA" fill="#949CCA" d="M431.9 34.974l-28.177 71.803 50.899-.909z"/><path stroke="#999FCB" fill="#999FCB" d="M431.9 34.974l22.722 70.894 1.817-63.623z"/><path stroke="#8E93C4" fill="#8E93C4" d="M403.723 106.777l6.363 26.358 44.536-27.267z"/><path stroke="#8C6BB1" fill="#8C6BB1" d="M413.721 187.669l-14.542 71.803 53.625-43.627z"/><path stroke="#94A5CE" fill="#94A5CE" d="M355.552 53.152l11.816 44.536 36.355 9.09z"/><path stroke="#97A8CF" fill="#97A8CF" d="M355.552 53.152l48.171 53.625L431.9 34.974z"/><path stroke="#ACB5D7" fill="#ACB5D7" d="M416.448-28.648l-46.354 8.18L431.9 34.974z"/><path stroke="#A4B3D5" fill="#A4B3D5" d="M370.094-20.468l-14.542 73.62 76.347-18.178z"/><path stroke="#8D75B5" fill="#8D75B5" d="M354.643 193.122l44.536 66.35 14.542-71.803z"/><path stroke="#8D88BF" fill="#8D88BF" d="M410.086 133.135l-30.903 10.907 34.538 43.627z"/><path stroke="#8D84BD" fill="#8D84BD" d="M379.183 144.042l-24.54 49.08 59.078-5.453z"/><path stroke="#8E6FB2" fill="#8E6FB2" d="M354.643 193.122l-3.635 69.076 48.171-2.726z"/><path stroke="#8C93C4" fill="#8C93C4" d="M403.723 106.777l-24.54 37.265 30.903-10.907z"/><path stroke="#8E9AC8" fill="#8E9AC8" d="M367.368 97.688l11.815 46.354 24.54-37.265z"/><path stroke="#917AB8" fill="#917AB8" d="M321.923 206.756l29.085 55.442 3.635-69.076z"/><path stroke="#A7BCDA" fill="#A7BCDA" d="M315.56-25.922l3.636 79.983 36.356-.909z"/><path stroke="#ADBEDC" fill="#ADBEDC" d="M315.56-25.922l39.992 79.074 14.542-73.62z"/><path stroke="#8F99C7" fill="#8F99C7" d="M367.368 97.688l-49.99 59.987 61.805-13.633z"/><path stroke="#908DC2" fill="#908DC2" d="M317.378 157.675l37.265 35.447 24.54-49.08z"/><path stroke="#99B0D3" fill="#99B0D3" d="M355.552 53.152l-36.356.91 48.172 43.626z"/><path stroke="#93A5CE" fill="#93A5CE" d="M295.565 80.42l21.813 77.255 49.99-59.987z"/><path stroke="#99B1D4" fill="#99B1D4" d="M319.196 54.061L295.565 80.42l71.803 17.27z"/><path stroke="#9274B3" fill="#9274B3" d="M321.923 206.756l-11.816 65.44 40.9-9.998z"/><path stroke="#9288BF" fill="#9288BF" d="M317.378 157.675l4.545 49.08 32.72-13.633z"/><path stroke="#99ADD2" fill="#99ADD2" d="M242.849 96.78l21.813 71.802 30.903-88.163z"/><path stroke="#B4CBE3" fill="#B4CBE3" d="M258.3-18.65l.909 57.26 56.352-64.532z"/><path stroke="#94A2CD" fill="#94A2CD" d="M295.565 80.42l-30.903 88.162 52.716-10.907z"/><path stroke="#ABC2DE" fill="#ABC2DE" d="M315.56-25.922L259.21 38.61l59.987 15.451z"/><path stroke="#9790C4" fill="#9790C4" d="M264.662 168.582l-28.175 28.176 85.436 9.998z"/><path stroke="#9887BF" fill="#9887BF" d="M236.487 196.758l12.724 52.716 72.712-42.718z"/><path stroke="#957BB7" fill="#957BB7" d="M249.211 249.474l60.896 22.722 11.816-65.44z"/><path stroke="#9490C4" fill="#9490C4" d="M317.378 157.675l-52.716 10.907 57.26 38.174z"/><path stroke="#A1BCDA" fill="#A1BCDA" d="M259.209 38.61l36.356 41.81 23.631-26.359z"/><path stroke="#9873AE" fill="#9873AE" d="M249.211 249.474L234.67 318.55l75.438-46.354z"/><path stroke="#A0BDDA" fill="#A0BDDA" d="M259.209 38.61l-16.36 58.17 52.716-16.36z"/><path stroke="#A7C2DD" fill="#A7C2DD" d="M188.315 61.332L242.85 96.78l16.36-58.17z"/><path stroke="#BACFE4" fill="#BACFE4" d="M258.3-18.65l-71.803 9.088L259.21 38.61z"/><path stroke="#9CA8D0" fill="#9CA8D0" d="M242.849 96.78l-33.63 47.262 55.443 24.54z"/><path stroke="#9C9CCA" fill="#9C9CCA" d="M209.22 144.042l27.267 52.716 28.175-28.176z"/><path stroke="#9E79B2" fill="#9E79B2" d="M181.044 254.018l53.625 64.532 14.542-69.076z"/><path stroke="#B4CBE2" fill="#B4CBE2" d="M186.497-9.562l1.818 70.894L259.21 38.61z"/><path stroke="#A6BEDB" fill="#A6BEDB" d="M188.315 61.332l11.816 34.538 42.718.91z"/><path stroke="#A1B4D6" fill="#A1B4D6" d="M200.13 95.87l9.09 48.172 33.629-47.263z"/><path stroke="#9F8AC0" fill="#9F8AC0" d="M236.487 196.758l-53.625 23.631 66.35 29.085z"/><path stroke="#A185BD" fill="#A185BD" d="M182.862 220.39l-1.818 33.628 68.167-4.544z"/><path stroke="#A198C8" fill="#A198C8" d="M209.22 144.042l-26.358 76.347 53.625-23.631z"/><path stroke="#BFD3E5" fill="#BFD3E5" d="M186.497-9.562l-30.902 2.727 32.72 68.167z"/><path stroke="#A3B2D4" fill="#A3B2D4" d="M200.13 95.87l-43.626 43.627 52.716 4.545z"/><path stroke="#A4A1CD" fill="#A4A1CD" d="M156.504 139.497l26.358 80.892 26.358-76.347z"/><path stroke="#A799C9" fill="#A799C9" d="M156.504 139.497l-3.636 84.528 29.994-3.636z"/><path stroke="#BDD1E5" fill="#BDD1E5" d="M155.595-6.835l-24.54 45.445 57.26 22.722z"/><path stroke="#ABC2DD" fill="#ABC2DD" d="M188.315 61.332l-49.08 35.447 60.896-.909z"/><path stroke="#A9BAD9" fill="#A9BAD9" d="M139.235 96.78l17.269 42.717L200.13 95.87z"/><path stroke="#A68BC1" fill="#A68BC1" d="M152.868 224.025l28.176 29.993 1.818-33.629z"/><path stroke="#B3CAE2" fill="#B3CAE2" d="M131.055 38.61l8.18 58.17 49.08-35.448z"/><path stroke="#A887BD" fill="#A887BD" d="M152.868 224.025l-20.904 50.898 49.08-20.905z"/><path stroke="#B1BCDB" fill="#B1BCDB" d="M75.612 114.048l5.453 43.627 58.17-60.896z"/><path stroke="#B09DCC" fill="#B09DCC" d="M81.065 157.675l-5.453 65.44 77.256.91z"/><path stroke="#C9DBEA" fill="#C9DBEA" d="M92.881-24.104l38.174 62.714 24.54-45.445z"/><path stroke="#ACA5CF" fill="#ACA5CF" d="M81.065 157.675l71.803 66.35 3.636-84.528z"/><path stroke="#ACB6D8" fill="#ACB6D8" d="M139.235 96.78l-58.17 60.895 75.439-18.178z"/><path stroke="#AD8DC2" fill="#AD8DC2" d="M75.612 223.116l56.352 51.807 20.904-50.898z"/><path stroke="#AF8ABD" fill="#AF8ABD" d="M75.612 223.116l29.994 56.351 26.358-4.544z"/><path stroke="#B9CFE5" fill="#B9CFE5" d="M131.055 38.61L76.52 54.06l62.714 42.718z"/><path stroke="#B7C9E1" fill="#B7C9E1" d="M76.52 54.061l-.908 59.987 63.623-17.269z"/><path stroke="#C8D9E9" fill="#C8D9E9" d="M92.881-24.104l-16.36 78.165 54.534-15.451z"/><path stroke="#CDDDEC" fill="#CDDDEC" d="M25.623 36.792l50.898 17.27 16.36-78.166z"/><path stroke="#B590C2" fill="#B590C2" d="M75.612 223.116l-54.534 29.993 84.528 26.358z"/><path stroke="#B6A4CF" fill="#B6A4CF" d="M39.256 202.211l36.356 20.905 5.453-65.44z"/><path stroke="#D8E5F1" fill="#D8E5F1" d="M22.896-29.557l2.727 66.35L92.88-24.105z"/><path stroke="#BCCBE3" fill="#BCCBE3" d="M32.894 110.413l42.718 3.635.909-59.987z"/><path stroke="#B8B1D5" fill="#B8B1D5" d="M14.716 135.862l24.54 66.35 41.81-44.537z"/><path stroke="#B6BFDC" fill="#B6BFDC" d="M75.612 114.048l-42.718-3.635 48.171 47.262z"/><path stroke="#B8BDDB" fill="#B8BDDB" d="M32.894 110.413l-18.178 25.449 66.35 21.813z"/><path stroke="#C2D5E8" fill="#C2D5E8" d="M25.623 36.792l7.27 73.62 43.628-56.35z"/><path stroke="#B89ACA" fill="#B89ACA" d="M39.256 202.211L21.078 253.11l54.534-29.993z"/><path stroke="#C7D9EA" fill="#C7D9EA" d="M-38 58.606l17.269 55.442 46.354-77.256z"/><path stroke="#DCE8F2" fill="#DCE8F2" d="M22.896-29.557l-47.263 4.544 49.99 61.805z"/><path stroke="#C2D1E6" fill="#C2D1E6" d="M25.623 36.792l-46.354 77.256 53.625-3.635z"/><path stroke="#BB9ECD" fill="#BB9ECD" d="M-14.369 208.573l35.447 44.536 18.178-50.898z"/><path stroke="#BCACD4" fill="#BCACD4" d="M14.716 135.862l-29.085 72.711 53.625-6.362z"/><path stroke="#BEB7D9" fill="#BEB7D9" d="M-14.369 134.044v74.53l29.085-72.712z"/><path stroke="#BDC5E0" fill="#BDC5E0" d="M-20.731 114.048l35.447 21.814 18.178-25.45z"/><path stroke="#D5E3EF" fill="#D5E3EF" d="M-24.367-25.013L-38 58.606l63.623-21.814z"/><path stroke="#BDC4DF" fill="#BDC4DF" d="M-20.731 114.048l6.362 19.996 29.085 1.818z"/><path stroke="#BD98C9" fill="#BD98C9" d="M-14.369 208.573l-19.995 58.17 55.442-13.634z"/></g></svg>