<svg xmlns="http://www.w3.org/2000/svg" width="772" height="250" viewBox="0 0 772 250"><g fill="none" fill-rule="evenodd" stroke-width="1.51"><path fill="#772C80" stroke="#772C80" d="M747.286 212.209l32.72 49.989 16.361-68.167z"/><path fill="#86649B" stroke="#86649B" d="M750.013 42.245l-6.362 66.35 52.716 3.635z"/><path fill="#794B8C" stroke="#794B8C" d="M796.367 112.23l-49.99 58.17 59.079-7.271z"/><path fill="#86699A" stroke="#86699A" d="M750.013 42.245l46.354 69.985L810 29.521z"/><path fill="#92709F" stroke="#92709F" d="M784.551-2.29l-34.538 44.535L810 29.521z"/><path fill="#7F5594" stroke="#7F5594" d="M743.651 108.595l2.726 61.805 49.99-58.17z"/><path fill="#784086" stroke="#784086" d="M746.377 170.4l49.99 23.631 9.089-30.902z"/><path fill="#7C3B88" stroke="#7C3B88" d="M746.377 170.4l.909 41.809 49.081-18.178z"/><path fill="#7B237F" stroke="#7B237F" d="M747.286 212.209l-14.542 57.26 47.262-7.271z"/><path fill="#9D76A7" stroke="#9D76A7" d="M737.288-15.015l12.725 57.26L784.551-2.29z"/><path fill="#88559B" stroke="#88559B" d="M743.651 108.595l-58.17 34.538 60.896 27.267z"/><path fill="#956FA7" stroke="#956FA7" d="M689.117 42.245l54.534 66.35 6.362-66.35z"/><path fill="#852889" stroke="#852889" d="M689.117 211.3l5.453 53.625 38.174 4.544z"/><path fill="#A87DB3" stroke="#A87DB3" d="M690.935-7.744l-1.818 49.989 48.171-57.26z"/><path fill="#946EAB" stroke="#946EAB" d="M689.117 42.245L670.03 88.599l73.621 19.996z"/><path fill="#843C90" stroke="#843C90" d="M746.377 170.4l-57.26 40.9 58.169.909z"/><path fill="#832E8B" stroke="#832E8B" d="M689.117 211.3l43.627 58.169 14.542-57.26z"/><path fill="#A177AC" stroke="#A177AC" d="M737.288-15.015l-48.171 57.26h60.896z"/><path fill="#894999" stroke="#894999" d="M685.481 143.133l3.636 68.167 57.26-40.9z"/><path fill="#8E63A5" stroke="#8E63A5" d="M670.03 88.599l15.451 54.534 58.17-34.538z"/><path fill="#873B97" stroke="#873B97" d="M614.587 218.571l9.089 55.443 65.441-62.714z"/><path fill="#8B53A0" stroke="#8B53A0" d="M685.481 143.133h-63.622l67.258 68.167z"/><path fill="#8A4D9F" stroke="#8A4D9F" d="M621.859 143.133l-7.272 75.438 74.53-7.271z"/><path fill="#9A78B2" stroke="#9A78B2" d="M644.581 48.608l25.449 39.991 19.087-46.354z"/><path fill="#A380B7" stroke="#A380B7" d="M648.217-7.744l-3.636 56.352 44.536-6.363z"/><path fill="#A881B7" stroke="#A881B7" d="M648.217-7.744l40.9 49.989 1.818-49.989z"/><path fill="#852F8E" stroke="#852F8E" d="M689.117 211.3l-65.441 62.714 70.894-9.089z"/><path fill="#8C65A9" stroke="#8C65A9" d="M670.03 88.599l-48.171 54.534h63.622z"/><path fill="#906EAF" stroke="#906EAF" d="M638.219 85.872l-16.36 57.261 48.171-54.534z"/><path fill="#9678B4" stroke="#9678B4" d="M644.581 48.608l-6.362 37.264 31.811 2.727z"/><path fill="#8A56A6" stroke="#8A56A6" d="M575.505 187.669l39.082 30.902 7.272-75.438z"/><path fill="#A788BE" stroke="#A788BE" d="M595.501-3.199l49.08 51.807 3.636-56.352z"/><path fill="#8F71B3" stroke="#8F71B3" d="M580.049 102.233l41.81 40.9 16.36-57.261z"/><path fill="#9681BB" stroke="#9681BB" d="M560.962 40.428l19.087 61.805 58.17-16.361z"/><path fill="#9A81BB" stroke="#9A81BB" d="M560.962 40.428l77.257 45.444 6.362-37.264z"/><path fill="#A38AC0" stroke="#A38AC0" d="M595.501-3.199l-34.539 43.627 83.619 8.18z"/><path fill="#8C6CB1" stroke="#8C6CB1" d="M580.049 102.233l-8.18 53.624 49.99-12.724z"/><path fill="#8C61AC" stroke="#8C61AC" d="M571.869 155.857l3.636 31.812 46.354-44.536z"/><path fill="#873996" stroke="#873996" d="M614.587 218.571l-32.72 58.17 41.809-2.727z"/><path fill="#89479F" stroke="#89479F" d="M575.505 187.669l6.362 89.072 32.72-58.17z"/><path fill="#89489F" stroke="#89489F" d="M575.505 187.669l-46.354 69.076 52.716 19.996z"/><path fill="#A490C4" stroke="#A490C4" d="M540.058 40.428h20.904l34.539-43.627z"/><path fill="#AA98C8" stroke="#AA98C8" d="M509.155-25.922l30.903 66.35 55.443-43.627z"/><path fill="#9B8EC3" stroke="#9B8EC3" d="M540.058 40.428l-13.634 51.807 34.538-51.807z"/><path fill="#8B56A6" stroke="#8B56A6" d="M516.427 200.393l12.724 56.352 46.354-69.076z"/><path fill="#8C74B4" stroke="#8C74B4" d="M511.882 139.497l59.987 16.36 8.18-53.624z"/><path fill="#907DBA" stroke="#907DBA" d="M526.424 92.235l-14.542 47.262 68.167-37.264z"/><path fill="#9586BE" stroke="#9586BE" d="M560.962 40.428l-34.538 51.807 53.625 9.998z"/><path fill="#8B60AB" stroke="#8B60AB" d="M571.869 155.857l-55.442 44.536 59.078-12.724z"/><path fill="#8C6AB0" stroke="#8C6AB0" d="M511.882 139.497l4.545 60.896 55.442-44.536z"/><path fill="#ACA5CF" stroke="#ACA5CF" d="M478.253-23.195l-21.814 65.44 52.716-68.167z"/><path fill="#9A94C6" stroke="#9A94C6" d="M456.439 42.245l69.985 49.99 13.634-51.807z"/><path fill="#A69DCA" stroke="#A69DCA" d="M509.155-25.922l-52.716 68.167 83.619-1.817z"/><path fill="#8D72B4" stroke="#8D72B4" d="M511.882 139.497l-26.358-.909 30.903 61.805z"/><path fill="#8D7FBB" stroke="#8D7FBB" d="M485.524 138.588l26.358.909 14.542-47.262z"/><path fill="#9593C5" stroke="#9593C5" d="M456.439 42.245l-1.817 63.623 71.802-13.633z"/><path fill="#8B5AA9" stroke="#8B5AA9" d="M516.427 200.393l-63.623 15.452 76.347 40.9z"/><path fill="#8A54A3" stroke="#8A54A3" d="M452.804 215.845l25.449 61.805 50.898-20.905z"/><path fill="#8F87BF" stroke="#8F87BF" d="M454.622 105.868l30.902 32.72 40.9-46.353z"/><path fill="#8C6CB1" stroke="#8C6CB1" d="M485.524 138.588l-32.72 77.257 63.623-15.452z"/><path fill="#A6A6CF" stroke="#A6A6CF" d="M431.899 34.974l24.54 7.271 21.814-65.44z"/><path fill="#8D74B5" stroke="#8D74B5" d="M413.721 187.669l39.083 28.176 32.72-77.257z"/><path fill="#8D8AC0" stroke="#8D8AC0" d="M454.622 105.868l-44.536 27.267 75.438 5.453z"/><path fill="#8D82BC" stroke="#8D82BC" d="M410.086 133.135l3.635 54.534 71.803-49.081z"/><path fill="#8B5DA6" stroke="#8B5DA6" d="M452.804 215.845l-53.625 43.627 55.443 37.264z"/><path fill="#8B55A1" stroke="#8B55A1" d="M452.804 215.845l1.818 80.891 23.631-19.086z"/><path fill="#ADAED4" stroke="#ADAED4" d="M416.448-28.648l15.451 63.622 46.354-58.169z"/><path fill="#949CCA" stroke="#949CCA" d="M431.899 34.974l-28.176 71.803 50.899-.909z"/><path fill="#999FCB" stroke="#999FCB" d="M431.899 34.974l22.723 70.894 1.817-63.623z"/><path fill="#8E93C4" stroke="#8E93C4" d="M403.723 106.777l6.363 26.358 44.536-27.267z"/><path fill="#8C6BB1" stroke="#8C6BB1" d="M413.721 187.669l-14.542 71.803 53.625-43.627z"/><path fill="#94A5CE" stroke="#94A5CE" d="M355.552 53.152l11.816 44.536 36.355 9.089z"/><path fill="#97A8CF" stroke="#97A8CF" d="M355.552 53.152l48.171 53.625 28.176-71.803z"/><path fill="#ACB5D7" stroke="#ACB5D7" d="M416.448-28.648l-46.354 8.18 61.805 55.442z"/><path fill="#A4B3D5" stroke="#A4B3D5" d="M370.094-20.468l-14.542 73.62 76.347-18.178z"/><path fill="#8D75B5" stroke="#8D75B5" d="M354.643 193.122l44.536 66.35 14.542-71.803z"/><path fill="#8D88BF" stroke="#8D88BF" d="M410.086 133.135l-30.903 10.907 34.538 43.627z"/><path fill="#8D84BD" stroke="#8D84BD" d="M379.183 144.042l-24.54 49.08 59.078-5.453z"/><path fill="#8E6FB2" stroke="#8E6FB2" d="M354.643 193.122l-3.635 69.076 48.171-2.726z"/><path fill="#8C93C4" stroke="#8C93C4" d="M403.723 106.777l-24.54 37.265 30.903-10.907z"/><path fill="#8E9AC8" stroke="#8E9AC8" d="M367.368 97.688l11.815 46.354 24.54-37.265z"/><path fill="#917AB8" stroke="#917AB8" d="M321.923 206.756l29.085 55.442 3.635-69.076z"/><path fill="#A7BCDA" stroke="#A7BCDA" d="M315.561-25.922l3.635 79.983 36.356-.909z"/><path fill="#ADBEDC" stroke="#ADBEDC" d="M315.561-25.922l39.991 79.074 14.542-73.62z"/><path fill="#8F99C7" stroke="#8F99C7" d="M367.368 97.688l-49.99 59.987 61.805-13.633z"/><path fill="#908DC2" stroke="#908DC2" d="M317.378 157.675l37.265 35.447 24.54-49.08z"/><path fill="#99B0D3" stroke="#99B0D3" d="M355.552 53.152l-36.356.909 48.172 43.627z"/><path fill="#93A5CE" stroke="#93A5CE" d="M295.565 80.419l21.813 77.256 49.99-59.987z"/><path fill="#99B1D4" stroke="#99B1D4" d="M319.196 54.061l-23.631 26.358 71.803 17.269z"/><path fill="#9274B3" stroke="#9274B3" d="M321.923 206.756l-11.816 65.44 40.901-9.998z"/><path fill="#9288BF" stroke="#9288BF" d="M317.378 157.675l4.545 49.081 32.72-13.634z"/><path fill="#99ADD2" stroke="#99ADD2" d="M242.849 96.779l21.813 71.803 30.903-88.163z"/><path fill="#B4CBE3" stroke="#B4CBE3" d="M258.3-18.651l.909 57.261 56.352-64.532z"/><path fill="#94A2CD" stroke="#94A2CD" d="M295.565 80.419l-30.903 88.163 52.716-10.907z"/><path fill="#ABC2DE" stroke="#ABC2DE" d="M315.561-25.922L259.209 38.61l59.987 15.451z"/><path fill="#9790C4" stroke="#9790C4" d="M264.662 168.582l-28.175 28.176 85.436 9.998z"/><path fill="#9887BF" stroke="#9887BF" d="M236.487 196.758l12.724 52.716 72.712-42.718z"/><path fill="#957BB7" stroke="#957BB7" d="M249.211 249.474l60.896 22.722 11.816-65.44z"/><path fill="#9490C4" stroke="#9490C4" d="M317.378 157.675l-52.716 10.907 57.261 38.174z"/><path fill="#A1BCDA" stroke="#A1BCDA" d="M259.209 38.61l36.356 41.809 23.631-26.358z"/><path fill="#9873AE" stroke="#9873AE" d="M249.211 249.474l-14.542 69.076 75.438-46.354z"/><path fill="#A0BDDA" stroke="#A0BDDA" d="M259.209 38.61l-16.36 58.169 52.716-16.36z"/><path fill="#A7C2DD" stroke="#A7C2DD" d="M188.315 61.332l54.534 35.447 16.36-58.169z"/><path fill="#BACFE4" stroke="#BACFE4" d="M258.3-18.651l-71.803 9.089 72.712 48.172z"/><path fill="#9CA8D0" stroke="#9CA8D0" d="M242.849 96.779l-33.629 47.263 55.442 24.54z"/><path fill="#9C9CCA" stroke="#9C9CCA" d="M209.22 144.042l27.267 52.716 28.175-28.176z"/><path fill="#9E79B2" stroke="#9E79B2" d="M181.044 254.018l53.625 64.532 14.542-69.076z"/><path fill="#B4CBE2" stroke="#B4CBE2" d="M186.497-9.562l1.818 70.894 70.894-22.722z"/><path fill="#A6BEDB" stroke="#A6BEDB" d="M188.315 61.332l11.816 34.538 42.718.909z"/><path fill="#A1B4D6" stroke="#A1B4D6" d="M200.131 95.87l9.089 48.172 33.629-47.263z"/><path fill="#9F8AC0" stroke="#9F8AC0" d="M236.487 196.758l-53.625 23.631 66.349 29.085z"/><path fill="#A185BD" stroke="#A185BD" d="M182.862 220.389l-1.818 33.629 68.167-4.544z"/><path fill="#A198C8" stroke="#A198C8" d="M209.22 144.042l-26.358 76.347 53.625-23.631z"/><path fill="#BFD3E5" stroke="#BFD3E5" d="M186.497-9.562l-30.902 2.727 32.72 68.167z"/><path fill="#A3B2D4" stroke="#A3B2D4" d="M200.131 95.87l-43.627 43.627 52.716 4.545z"/><path fill="#A4A1CD" stroke="#A4A1CD" d="M156.504 139.497l26.358 80.892 26.358-76.347z"/><path fill="#A799C9" stroke="#A799C9" d="M156.504 139.497l-3.636 84.528 29.994-3.636z"/><path fill="#BDD1E5" stroke="#BDD1E5" d="M155.595-6.835l-24.54 45.445 57.26 22.722z"/><path fill="#ABC2DD" stroke="#ABC2DD" d="M188.315 61.332l-49.08 35.447 60.896-.909z"/><path fill="#A9BAD9" stroke="#A9BAD9" d="M139.235 96.779l17.269 42.718 43.627-43.627z"/><path fill="#A68BC1" stroke="#A68BC1" d="M152.868 224.025l28.176 29.993 1.818-33.629z"/><path fill="#B3CAE2" stroke="#B3CAE2" d="M131.055 38.61l8.18 58.169 49.08-35.447z"/><path fill="#A887BD" stroke="#A887BD" d="M152.868 224.025l-20.904 50.898 49.08-20.905z"/><path fill="#B1BCDB" stroke="#B1BCDB" d="M75.612 114.048l5.453 43.627 58.17-60.896z"/><path fill="#B09DCC" stroke="#B09DCC" d="M81.065 157.675l-5.453 65.441 77.256.909z"/><path fill="#C9DBEA" stroke="#C9DBEA" d="M92.881-24.104l38.174 62.714 24.54-45.445z"/><path fill="#ACA5CF" stroke="#ACA5CF" d="M81.065 157.675l71.803 66.35 3.636-84.528z"/><path fill="#ACB6D8" stroke="#ACB6D8" d="M139.235 96.779l-58.17 60.896 75.439-18.178z"/><path fill="#AD8DC2" stroke="#AD8DC2" d="M75.612 223.116l56.352 51.807 20.904-50.898z"/><path fill="#AF8ABD" stroke="#AF8ABD" d="M75.612 223.116l29.994 56.351 26.358-4.544z"/><path fill="#B9CFE5" stroke="#B9CFE5" d="M131.055 38.61L76.521 54.061l62.714 42.718z"/><path fill="#B7C9E1" stroke="#B7C9E1" d="M76.521 54.061l-.909 59.987 63.623-17.269z"/><path fill="#C8D9E9" stroke="#C8D9E9" d="M92.881-24.104l-16.36 78.165 54.534-15.451z"/><path fill="#CDDDEC" stroke="#CDDDEC" d="M25.623 36.792l50.898 17.269 16.36-78.165z"/><path fill="#B590C2" stroke="#B590C2" d="M75.612 223.116l-54.534 29.993 84.528 26.358z"/><path fill="#B6A4CF" stroke="#B6A4CF" d="M39.256 202.211l36.356 20.905 5.453-65.441z"/><path fill="#D8E5F1" stroke="#D8E5F1" d="M22.896-29.557l2.727 66.349 67.258-60.896z"/><path fill="#BCCBE3" stroke="#BCCBE3" d="M32.894 110.413l42.718 3.635.909-59.987z"/><path fill="#B8B1D5" stroke="#B8B1D5" d="M14.716 135.862l24.54 66.349 41.809-44.536z"/><path fill="#B6BFDC" stroke="#B6BFDC" d="M75.612 114.048l-42.718-3.635 48.171 47.262z"/><path fill="#B8BDDB" stroke="#B8BDDB" d="M32.894 110.413l-18.178 25.449 66.349 21.813z"/><path fill="#C2D5E8" stroke="#C2D5E8" d="M25.623 36.792l7.271 73.621 43.627-56.352z"/><path fill="#B89ACA" stroke="#B89ACA" d="M39.256 202.211l-18.178 50.898 54.534-29.993z"/><path fill="#C7D9EA" stroke="#C7D9EA" d="M-38 58.606l17.269 55.442 46.354-77.256z"/><path fill="#DCE8F2" stroke="#DCE8F2" d="M22.896-29.557l-47.263 4.544 49.99 61.805z"/><path fill="#C2D1E6" stroke="#C2D1E6" d="M25.623 36.792l-46.354 77.256 53.625-3.635z"/><path fill="#BB9ECD" stroke="#BB9ECD" d="M-14.369 208.573l35.447 44.536 18.178-50.898z"/><path fill="#BCACD4" stroke="#BCACD4" d="M14.716 135.862l-29.085 72.711 53.625-6.362z"/><path fill="#BEB7D9" stroke="#BEB7D9" d="M-14.369 134.044v74.529l29.085-72.711z"/><path fill="#BDC5E0" stroke="#BDC5E0" d="M-20.731 114.048l35.447 21.814 18.178-25.449z"/><path fill="#D5E3EF" stroke="#D5E3EF" d="M-24.367-25.013L-38 58.606l63.623-21.814z"/><path fill="#BDC4DF" stroke="#BDC4DF" d="M-20.731 114.048l6.362 19.996 29.085 1.818z"/><path fill="#BD98C9" stroke="#BD98C9" d="M-14.369 208.573l-19.995 58.17 55.442-13.634z"/></g></svg>