<svg width="128" height="128" viewBox="0 0 128 128" xmlns="http://www.w3.org/2000/svg"><title>icon</title><g stroke-width="1.51" fill="none" fill-rule="evenodd"><path stroke="#8D74B5" fill="#8D74B5" d="M91.721 126.669l39.083 28.176 32.72-77.257z"/><path stroke="#8D8AC0" fill="#8D8AC0" d="M132.622 44.868L88.086 72.135l75.438 5.453z"/><path stroke="#8D82BC" fill="#8D82BC" d="M88.086 72.135l3.635 54.534 71.803-49.08z"/><path stroke="#949CCA" fill="#949CCA" d="M109.9-26.026L81.722 45.777l50.899-.909z"/><path stroke="#999FCB" fill="#999FCB" d="M109.9-26.026l22.722 70.894 1.817-63.623z"/><path stroke="#8E93C4" fill="#8E93C4" d="M81.723 45.777l6.363 26.358 44.536-27.267z"/><path stroke="#8C6BB1" fill="#8C6BB1" d="M91.721 126.669L77.18 198.472l53.625-43.627z"/><path stroke="#94A5CE" fill="#94A5CE" d="M33.552-7.848l11.816 44.536 36.355 9.09z"/><path stroke="#97A8CF" fill="#97A8CF" d="M33.552-7.848l48.171 53.625L109.9-26.026z"/><path stroke="#8D75B5" fill="#8D75B5" d="M32.643 132.122l44.536 66.35 14.542-71.803z"/><path stroke="#8D88BF" fill="#8D88BF" d="M88.086 72.135L57.183 83.042l34.538 43.627z"/><path stroke="#8D84BD" fill="#8D84BD" d="M57.183 83.042l-24.54 49.08 59.078-5.453z"/><path stroke="#8C93C4" fill="#8C93C4" d="M81.723 45.777l-24.54 37.265 30.903-10.907z"/><path stroke="#8E9AC8" fill="#8E9AC8" d="M45.368 36.688l11.815 46.354 24.54-37.265z"/><path stroke="#8F99C7" fill="#8F99C7" d="M45.368 36.688l-49.99 59.987 61.805-13.633z"/><path stroke="#908DC2" fill="#908DC2" d="M-4.622 96.675l37.265 35.447 24.54-49.08z"/><path stroke="#99B0D3" fill="#99B0D3" d="M33.552-7.848l-36.356.91 48.172 43.626z"/><path stroke="#93A5CE" fill="#93A5CE" d="M-26.435 19.42l21.813 77.255 49.99-59.987z"/><path stroke="#99B1D4" fill="#99B1D4" d="M-2.804-6.939L-26.435 19.42l71.803 17.27z"/><path stroke="#9288BF" fill="#9288BF" d="M-4.622 96.675l4.545 49.08 32.72-13.633z"/></g></svg>